:SAMPLES-PER-SECOND 30
:FULLY-SPECIFIED
:DEGREES
731
root  -19.9976 38.8148 1.90733 -90.5328 -85.1413 82.0565
RightUpLeg  -6.05005 -8.22491 -13.0409
RightLeg  61.5947 1.66669 2.84887
RightFoot  -1.02002 -0.94638 10.3702
RightToes  1.45519e-009 0 -3.6325e-017
Spine  6.87611 3.07019 0.883402
Spine1  8.34471 5.48404 -11.0552
HEad  25.8641 46.1259 1.26618
LeftShoulder1  -1.16617 6.64361 -30.9509
LeftArm  7.08072 -2.3734 -22.3675
LeftForeArm  87.4039 -77.1541 -37.9628
LeftHand  -0.0445565 4.49848 3.02216
RightShoulder  -1.01492 -6.19839 31.0965
RightArm  14.8932 -8.57329 44.5984
RightForeArm  22.9359 10.6768 6.47894
RightHand  0.168043 1.21118 2.92689
LeftUpLeg  -9.38781 6.19343 -8.88459
LeftLeg  20.4646 3.10962 1.22637
LeftFoot  -2.14489 -0.743008 9.37701
LeftToes  -2.53752e-010 -2.07034e-011 -2.70101e-011
732
root  -20.6536 38.9718 1.97161 -82.8629 -85.6105 74.4451
RightUpLeg  -8.8586 -8.71705 -12.507
RightLeg  59.5667 0.721357 0.862886
RightFoot  -1.81126 -0.829638 9.78752
RightToes  1.45519e-009 0 -3.6325e-017
Spine  6.77366 2.65618 0.376234
Spine1  8.78447 4.81146 -9.9487
HEad  26.2469 46.0295 1.63698
LeftShoulder1  -1.21112 6.73436 -31.3004
LeftArm  6.79335 -2.22909 -22.1452
LeftForeArm  91.0064 -78.1302 -41.9633
LeftHand  -0.0529688 4.00078 2.79124
RightShoulder  -1.04498 -6.27908 31.0942
RightArm  15.6896 -8.46197 44.0777
RightForeArm  19.1199 12.3327 6.16612
RightHand  0.0555292 2.17721 0.635921
LeftUpLeg  -7.99139 6.06137 -8.25412
LeftLeg  19.902 2.74083 0.910715
LeftFoot  -2.92105 -0.672831 9.35497
LeftToes  -2.53752e-010 -2.07034e-011 -2.70101e-011
733
root  -21.2812 39.1361 2.02076 -76.5568 -85.9722 68.1904
RightUpLeg  -10.9398 -8.57162 -11.8102
RightLeg  54.8157 0.134548 -0.209896
RightFoot  -2.6099 -0.764252 9.75256
RightToes  1.45519e-009 0 -3.6325e-017
Spine  6.69956 2.42014 0.0448292
Spine1  9.10818 4.40437 -9.16466
HEad  26.9607 45.7375 2.06125
LeftShoulder1  -1.2211 6.74176 -31.524
LeftArm  6.7231 -2.22768 -22.185
LeftForeArm  94.2421 -78.8611 -45.7612
LeftHand  -0.057886 3.93417 3.12638
RightShoulder  -1.05932 -6.32665 30.9692
RightArm  16.6915 -8.13502 43.9259
RightForeArm  16.9326 13.7895 5.88023
RightHand  0.0557189 2.24656 0.669352
LeftUpLeg  -6.44585 5.72266 -7.62528
LeftLeg  18.9463 2.67263 0.600173
LeftFoot  -3.54709 -0.599665 9.09694
LeftToes  -2.53752e-010 -2.07034e-011 -2.70101e-011
734
root  -21.8818 39.2623 2.05532 -68.244 -86.1642 60.2008
RightUpLeg  -12.5977 -8.28738 -11.1144
RightLeg  48.1704 -0.106792 -0.451453
RightFoot  -2.92589 -0.720209 9.49819
RightToes  1.45519e-009 0 -3.6325e-017
Spine  6.54983 2.15586 -0.0764452
Spine1  8.9987 4.03049 -8.63052
HEad  26.6727 45.7365 1.9564
LeftShoulder1  -1.23479 6.74997 -31.8449
LeftArm  7.05985 -1.99968 -21.6894
LeftForeArm  100.319 -79.8869 -52.4856
LeftHand  -0.055429 4.00557 3.05297
RightShoulder  -0.997063 -6.19512 30.4852
RightArm  16.5053 -7.89457 44.3861
RightForeArm  15.3031 14.5602 5.61631
RightHand  0.0263788 3.11781 0.121508
LeftUpLeg  -5.37068 5.61969 -7.10549
LeftLeg  18.2203 2.29482 0.268991
LeftFoot  -4.19273 -0.542518 9.07263
LeftToes  -2.53752e-010 -2.07034e-011 -2.70101e-011
735
root  -22.4493 39.3659 2.06548 -59.7696 -85.9771 52.322
RightUpLeg  -13.9133 -8.2606 -10.7214
RightLeg  40.3842 -0.239937 -0.502122
RightFoot  -3.04837 -0.732127 9.78862
RightToes  1.45519e-009 0 -3.6325e-017
Spine  6.23191 1.91852 -0.515954
Spine1  8.80227 3.70694 -8.15392
HEad  26.6951 46.3115 1.97463
LeftShoulder1  -1.28947 6.87472 -32.0572
LeftArm  7.54511 -2.14352 -21.2043
LeftForeArm  106.764 -80.641 -59.3035
LeftHand  -0.0620462 3.66048 2.98133
RightShoulder  -1.00306 -6.213 30.4606
RightArm  16.764 -7.23295 44.6804
RightForeArm  15.2264 15.5093 5.31961
RightHand  0.0223249 2.75083 0.106598
LeftUpLeg  -4.6297 5.11769 -6.96958
LeftLeg  17.4077 2.31602 0.12341
LeftFoot  -4.59019 -0.514962 9.17695
LeftToes  -2.53752e-010 -2.07034e-011 -2.70101e-011
736
root  -23.0163 39.4464 2.05526 -56.1573 -85.661 49.1594
RightUpLeg  -14.5617 -8.27881 -10.6494
RightLeg  32.0993 0.404164 0.0220604
RightFoot  -2.91488 -0.790209 10.425
RightToes  1.45519e-009 0 -3.6325e-017
Spine  6.16238 1.86147 -0.430563
Spine1  8.43314 3.804 -8.48403
HEad  26.3777 46.1362 1.80224
LeftShoulder1  -1.20858 6.6945 -31.6918
LeftArm  7.95041 -2.106 -21.4396
LeftForeArm  111.312 -81.0299 -63.8952
LeftHand  -0.0725573 3.45957 3.40271
RightShoulder  -1.04787 -6.32019 30.6562
RightArm  17.7033 -6.64189 44.8321
RightForeArm  13.8803 16.6454 5.10535
RightHand  0.059586 3.09374 0.628049
LeftUpLeg  -3.69041 4.87194 -6.91303
LeftLeg  16.5119 2.0709 -0.153806
LeftFoot  -5.16156 -0.450723 8.9071
LeftToes  -2.53752e-010 -2.07034e-011 -2.70101e-011
737
root  -23.5464 39.5251 2.0252 -48.7958 -84.9851 42.1871
RightUpLeg  -14.6098 -8.77812 -10.6918
RightLeg  23.6698 1.63679 0.587346
RightFoot  -2.28237 -0.869398 10.7563
RightToes  1.45519e-009 0 -3.6325e-017
Spine  6.09219 1.7248 -0.529571
Spine1  8.17585 3.70071 -8.34524
HEad  26.0285 45.9174 1.25302
LeftShoulder1  -1.17906 6.61187 -31.7487
LeftArm  8.63277 -2.59939 -21.4578
LeftForeArm  112.879 -81.152 -65.856
LeftHand  -0.0827682 3.29525 3.74372
RightShoulder  -1.02285 -6.24985 30.6884
RightArm  18.3654 -6.17076 45.2295
RightForeArm  12.0708 17.7436 4.913
RightHand  -0.0102117 4.09459 -0.393435
LeftUpLeg  -2.71622 4.58991 -6.93909
LeftLeg  15.5425 1.50065 -0.418981
LeftFoot  -5.47266 -0.410384 8.63479
LeftToes  -2.53752e-010 -2.07034e-011 -2.70101e-011
